<svg xmlns="http://www.w3.org/2000/svg" viewBox="0 0 513.5 474.5"><defs><style>.cls-1{isolation:isolate;}.cls-2{fill:#fff;}.cls-3{fill:#b1b1b1;}.cls-4{mix-blend-mode:multiply;}.cls-5{fill:#007396;}.cls-6{fill:maroon;}</style></defs><g class="cls-1"><g id="Layer_1" data-name="Layer 1"><polygon class="cls-2" points="273.97 472.34 194.84 335.25 273.97 198.17 432.25 198.17 511.42 335.25 432.25 472.34 273.97 472.34"/><polygon class="cls-2" points="229.29 275.76 150.15 138.67 229.29 1.58 387.59 1.58 466.73 138.67 387.59 275.76 229.29 275.76"/><polygon class="cls-2" points="81.39 412.86 2.25 275.77 81.39 138.67 239.69 138.67 318.82 275.77 239.69 412.86 81.39 412.86"/><polygon class="cls-2" points="274.01 198.15 318.82 275.77 229.29 275.76 274.01 198.15"/><polygon class="cls-3" points="273.97 472.34 194.84 335.25 273.97 198.17 432.25 198.17 511.42 335.25 432.25 472.34 273.97 472.34"/><g class="cls-4"><polygon class="cls-5" points="229.29 275.76 150.15 138.67 229.29 1.58 387.59 1.58 466.73 138.67 387.59 275.76 229.29 275.76"/></g><g class="cls-4"><polygon class="cls-6" points="81.39 412.86 2.25 275.77 81.39 138.67 239.69 138.67 318.82 275.77 239.69 412.86 81.39 412.86"/></g><polygon class="cls-2" points="274.01 198.15 318.82 275.77 229.29 275.76 274.01 198.15"/></g></g></svg>