<?xml version="1.0" encoding="utf-8"?>
<!-- Generator: Adobe Illustrator 26.0.3, SVG Export Plug-In . SVG Version: 6.00 Build 0)  -->
<svg version="1.1" id="Layer_1" xmlns="http://www.w3.org/2000/svg" xmlns:xlink="http://www.w3.org/1999/xlink" x="0px" y="0px"
	 viewBox="0 0 512 512" style="enable-background:new 0 0 512 512;" xml:space="preserve">
<style type="text/css">
	.st0{fill:#00AEEF;}
</style>
<path class="st0" d="M361.8,281.71c-28.51,8.95-57.93,1.79-57.84-36.35c0.04-58.12,136.54-106.85,155.47-157.65
	c4.69-12.66,4.97-23.08-1.08-22.76c-4.35,0.26-0.95,6.57-10.51,16.15c-56.55,56.57-151.29,56.48-223.99,89.04
	c-47.67,21.4-187.38,87.15-155.21,233.79c1.53,6.96,5.69,30.3,9.95,30.3c4.95,0,4.91-13.87,4.78-30.71
	C82.3,316.21,185.7,291.85,219.34,234.81c4.03-6.82,10.98-16.39,12.64-11.95c0.8,2.15,0.28,5.32-1.08,11.39
	c-10.53,46.88-59.56,76.96-45.67,110.47c18,43.5,69.98,11.07,85.94-16.88c4.29-7.71,6.68-12.62,9.54-11.63
	c2.15,0.75,2.07,9.58,0.73,17.53c-8.53,50.45-20.13,78.79-57.06,107.5c-11.8,9.19-30.38,11.11-27.95,18.17
	c0.62,1.83,8.63,1.64,15.01,0.99c98.32-6.29,180.56-122.22,202.35-197.96c2.28-5.32,2.97-10.34,0.56-12.21
	c-2.97-2.28-7.28,2.97-11.67,6.87C391.43,266.96,376.01,277.25,361.8,281.71z"/>
</svg>
